<?xml version="1.0" encoding="UTF-8"?><svg id="Camada_1" xmlns="http://www.w3.org/2000/svg" viewBox="0 0 2500 1867.7"><defs><style>.cls-1{fill:#656565;}.cls-2{fill:#b3272d;}.cls-3{fill:#e2231a;}</style></defs><g id="vertical-logo"><g id="icon"><g id="shadow"><path class="cls-2" d="m1503.55,79.78c5.41,7.44,4.3,16.03,4.3,24.42.01,46.99-.25,93.99.17,140.98.13,14.72-4.59,26.72-14.82,36.94-21.3,21.27-42.52,42.62-63.81,63.9-54.53,54.5-109.08,108.98-163.62,163.47-54.25,54.2-108.46,108.43-162.78,162.55-5.24,5.22-10.93,10.04-16.8,14.54-2.03,1.56-5.24,1.56-7.92,2.28.72-8.51,2.05-17.01,2.08-25.53.2-54.56.12-109.13.14-163.69,13.12-13.31,26.17-26.69,39.38-39.92,9.06-9.08,18.34-17.93,27.49-26.92,1.28-1.26,2.39-2.69,2.79-3.14-24.43-24.86-48.59-49.45-72.76-74.05-25.46-25.92-50.78-51.98-76.45-77.7-10.54-10.56-13.01-23.1-12.83-37.38.46-36.16.16-72.33.11-108.5-.02-13.57-.51-27.15-.07-40.71.12-3.89,2.72-7.7,4.19-11.54,1.1,0,2.2,0,3.31,0,3.15,3.01,6.35,5.95,9.43,9.03,67.83,67.98,135.63,135.98,203.46,203.96,13.04,13.07,26.15,26.07,39.35,39.21,1.15-1,2.17-1.78,3.06-2.67,46.3-46.41,92.52-92.89,138.9-139.22,36.23-36.19,72.66-72.18,108.96-108.3.39-.39.25-1.33.36-2.01,1.47,0,2.94,0,4.41,0Zm-255.6,253.63c-4.23,3.92-7.78,7-11.1,10.31-25.99,25.93-51.97,51.88-77.88,77.9-5.69,5.71-7.75,7.66,0,15.17,26.75,25.94,52.84,52.57,79.23,78.89,2.06,2.05,4.44,3.77,6.68,5.65,1.03-3.34,2.95-6.69,2.96-10.03.18-58.93.13-117.86.13-177.89Z"/><path class="cls-2" d="m1419.85,981.89c-1.52.29-3.59.03-4.48.94-21.46,21.61-42.83,43.31-64.11,65.1-1.55,1.59-2.32,3.95-3.57,6.14,40.43,40.36,80.58,80.43,120.72,120.5,9.88,9.86,19.48,20,29.69,29.51,7.79,7.25,11.46,16.03,11.49,26.27.15,49.93.1,99.87.06,149.81,0,3.83.02,7.75-.73,11.47-.55,2.75-1.73,6.4-3.78,7.51-1.59.86-5.65-.91-7.45-2.68-23.64-23.35-47.07-46.9-70.55-70.41-56.18-56.23-112.36-112.46-168.53-168.71-2.88-2.89-5.6-5.95-8.53-9.09-15.29,15.77-30.98,32.21-46.96,48.39-28.25,28.6-56.66,57.05-85.03,85.52-33.65,33.77-67.24,67.59-101.07,101.19-6.7,6.66-14.33,12.39-21.53,18.55-.87-.26-1.73-.53-2.6-.79-.95-3.61-2.71-7.22-2.72-10.83-.12-54.71-.29-109.43.4-164.13.08-6.68,3.34-14.96,7.99-19.7,47.89-48.88,96.36-97.2,144.69-145.65,31.11-31.19,62.25-62.35,93.39-93.51,54.36-54.39,108.71-108.78,163.12-163.11,3.36-3.35,6.95-6.59,10.88-9.2,2.22-1.47,5.36-1.55,8.09-2.25-.01,4.85-.04,9.7-.04,14.55,0,55.34-.01,110.67.05,166.01,0,2.87.72,5.75,1.1,8.62Zm-167.54,163.93c31.46-31.45,62.58-62.57,93.72-93.71-30.55-30.98-61.69-62.56-93.38-94.71-1.11,2.44-2.36,3.89-2.36,5.35-.07,60.01-.04,120.02.05,180.02,0,.72.9,1.44,1.97,3.05Z"/><path class="cls-2" d="m1564.15,643.25c2-2.38,3.82-4.93,6.01-7.12,46.71-46.76,93.61-93.33,140.09-140.31,10.75-10.86,22.87-16.08,38.06-15.99,46.82.26,93.64.09,140.46.17,4.93,0,9.85.48,14.77.86,5.33.4,7.56,4.37,5.01,9.12-.93,1.75-2.34,3.3-3.74,4.72-31.19,31.63-62.26,63.36-93.65,94.79-43.07,43.12-86.35,86.04-129.62,128.95-7.41,7.35-15.25,14.25-22.56,21.05,5.6,5.91,10.74,11.62,16.19,17.01,17.21,17.04,34.65,33.84,51.79,50.94,58.88,58.75,117.66,117.58,176.47,176.39,1.68,1.68,3.54,3.31,4.78,5.29,3.83,6.14,1.26,10.51-6.07,10.53-33.23.07-66.46.13-99.7.17-17.99.02-35.99.01-53.98-.04-5.5-.02-11.06.24-16.48-.48-7.94-1.04-13.38-6.74-18.8-11.94-14.82-14.24-29.49-28.65-44.08-43.12-18.31-18.16-36.56-36.4-54.71-54.72-14.91-15.06-29.54-30.4-44.48-45.44-26.85-27.02-53.79-53.96-80.8-80.83-59.11-58.82-118.26-117.58-177.43-176.34-4.26-4.23-8.31-8.5-9.55-14.66,3.43-.37,6.86-1.05,10.29-1.05,54.59-.06,109.18-.04,163.77-.03,5.02,0,10.05,0,15.07-.01.14.7.05,1.61.47,2.05,7.32,7.71,14.53,15.53,22.11,22.98,9.54,9.38,19.47,18.36,29.09,27.66,6.02,5.82,11.78,11.92,17.66,17.89-2.11,3.44-3.67,7.43-6.42,10.23-19.42,19.75-39.05,39.28-58.69,58.81-4.01,3.99-8.42,7.58-12.49,11.51-5.28,5.11-10.41,10.39-16.76,16.76,3.8.24,6.06.58,8.3.48,3.82-.16,7.62-.88,11.43-.86,54.43.3,108.86.7,163.29.97,2,0,4-1.05,5.99-1.61-.85-1.9-1.26-4.22-2.62-5.64-8.82-9.24-17.89-18.24-26.78-27.41-5.35-5.51-10.4-11.31-15.81-16.76-5.89-5.92-11.96-11.67-18.1-17.34-8.25-7.62-16.69-15.03-24.91-22.69-1.34-1.25-1.93-3.3-2.87-4.98Z"/><path class="cls-2" d="m1009.2,909.44c-1.06-1.62-1.88-3.49-3.22-4.83-22.19-22.23-44.44-44.39-66.68-66.56,1.2-1.77,2.14-3.81,3.64-5.28,15.4-15.18,30.95-30.21,46.35-45.4,12.93-12.75,25.71-25.67,38.58-38.48,2-1.99,4.16-3.84,7.27-6.7-3-.61-4.79-1.29-6.58-1.29-59.26-.06-118.53-.07-177.79,0-1.6,0-3.21.95-4.81,1.46.73,1.57,1.1,3.51,2.25,4.66,28.09,28.22,56.27,56.34,84.42,84.51,1.99,1.99,3.83,4.13,5.73,6.19-26.83,27.15-53.52,54.44-80.52,81.41-23.24,23.22-46.86,46.07-70.26,69.15-8.29,8.18-18.03,11.76-29.77,11.71-50.68-.22-101.35-.02-152.03-.06-3.8,0-7.81-.04-11.36-1.2-5.31-1.73-5.75-4.71-1.63-8.9,12.6-12.83,25.3-25.56,38.01-38.28,67.92-68,135.86-135.99,203.8-203.97,2.19-2.19,4.52-4.24,7.13-6.67-1.14-1.31-2.12-2.57-3.23-3.69-79.51-79.38-159.03-158.75-238.53-238.14-2.85-2.85-5.67-5.78-8.14-8.95-2.95-3.78-2.18-6.23,2.46-7.6,2.94-.87,6.14-1.25,9.22-1.25,52.33-.12,104.65-.21,156.98-.15,11.78.01,21.18,5.43,29.4,13.67,53.92,54.07,107.92,108.06,161.96,162.02,10.81,10.79,22.05,21.15,32.82,31.98,47.16,47.4,94.21,94.89,141.32,142.34,10.94,11.02,21.92,22.01,32.9,32.98,11.09,11.07,22.41,21.92,33.19,33.29,2.64,2.79,3.57,7.2,5.29,10.87-62.72.38-125.44.76-188.16,1.14Z"/></g><g id="logo"><path class="cls-3" d="m1009.2,909.44c62.72-.38,125.44-.76,188.16-1.14-1.25,3.97-1.35,9.04-3.93,11.74-18.5,19.31-37.47,38.16-56.35,57.1-30.83,30.93-61.74,61.8-92.56,92.74-21.17,21.25-42,42.85-63.47,63.8-10.58,10.32-22.06,19.75-33.5,29.13-5.97,4.89-13.41,6.62-21.15,6.62-41.11.02-82.22-.03-123.33.1-10.02.03-20.04.76-30.07.94-3.02.05-6.12-.39-9.07-1.11-6.31-1.53-7.77-6.5-3.27-11.11,7.56-7.75,15.27-15.36,22.93-23.01,72.45-72.37,144.9-144.73,217.34-217.11,2.83-2.82,5.52-5.78,8.28-8.67Z"/><path class="cls-3" d="m1419.85,981.89c-.38-2.87-1.09-5.74-1.1-8.62-.07-55.34-.05-110.67-.05-166.01,0-4.85.03-9.7.04-14.55,4,2.24,8.58,3.86,11.9,6.86,7.06,6.38,13.37,13.59,20.17,20.27,12.92,12.7,26.11,25.13,38.93,37.94,15.38,15.38,30.37,31.15,45.73,46.54,41.88,41.96,83.69,84,125.94,125.59,11.11,10.94,16.64,22.74,16.52,38.74-.38,51.73.48,103.46.71,155.19.01,2.48-.75,5.65-2.37,7.3-2.79,2.85-6.31,2.37-9.29-.59-5.87-5.81-11.85-11.5-17.69-17.34-40.57-40.53-81.18-81-121.64-121.64-33.29-33.44-66.38-67.07-99.56-100.6-.9-.9-1.9-1.7-2.85-2.55-.28-.25-.56-.51-.84-.77-1.51-1.93-3.02-3.86-4.53-5.78Z"/><path class="cls-3" d="m1080.49,499.64c-.01,54.56.07,109.13-.14,163.69-.03,8.51-1.35,17.02-2.08,25.53-3.02-1.68-6.62-2.77-8.97-5.12-80.92-80.81-161.79-161.65-242.35-242.82-5.28-5.32-7.46-13.41-7.47-21.39-.07-39.28-.1-78.56-.13-117.85-.01-17.16,0-34.32,0-51.92.27-.11,1.38-.81,2.55-.96,3.69-.48,6.54-.6,9.91,2.97,15.76,16.65,32.26,32.59,48.45,48.83,40,40.12,79.96,80.28,119.98,120.38,25.79,25.85,51.65,51.63,77.52,77.4.66.66,1.8.85,2.71,1.26Z"/><path class="cls-3" d="m1491.27,571.17c-5.02,0-10.05.01-15.07.01-54.59,0-109.18-.03-163.77.03-3.43,0-6.86.68-10.29,1.05,1.02-2.73,1.35-6.12,3.19-8.1,14.19-15.2,28.57-30.24,43.14-45.09,5.71-5.82,12.28-10.81,18.07-16.56,9.36-9.32,18.29-19.07,27.62-28.42,7.22-7.23,14.88-14.01,22.15-21.19,12.12-11.95,24.13-24,36.11-36.09,30.93-31.23,61.84-62.49,92.7-93.79,7.19-7.29,15.93-10.66,25.99-10.76,48.19-.45,96.37-.89,144.56-1.18,7.44-.04,14.9.59,22.32,1.24,1.51.13,3.94,1.62,4.11,2.76.31,2.07-.08,4.91-1.36,6.42-3.76,4.44-8.05,8.45-12.22,12.52-9.83,9.59-19.86,18.98-29.55,28.71-21.9,21.99-43.55,44.24-65.47,66.21-44.07,44.17-88.26,88.23-132.39,132.34-3.28,3.28-6.54,6.58-9.81,9.88Z"/><path class="cls-3" d="m938.36,837.73c-1.91-2.07-3.75-4.2-5.73-6.19-28.14-28.16-56.32-56.29-84.42-84.51-1.15-1.16-1.52-3.09-2.25-4.66,1.6-.51,3.21-1.46,4.81-1.46,59.26-.07,118.53-.06,177.79,0,1.79,0,3.58.68,6.58,1.29-3.11,2.86-5.27,4.7-7.27,6.7-12.87,12.82-25.65,25.73-38.58,38.48-15.4,15.19-30.95,30.22-46.35,45.4-1.49,1.47-2.44,3.51-3.64,5.28-.35-.02-.66-.12-.95-.32Z"/><path class="cls-3" d="m1564.15,643.25c.94,1.68,1.53,3.73,2.87,4.98,8.22,7.66,16.66,15.07,24.91,22.69,6.14,5.67,12.21,11.42,18.1,17.34,5.41,5.44,10.46,11.25,15.81,16.76,8.89,9.17,17.96,18.17,26.78,27.41,1.36,1.42,1.77,3.74,2.62,5.64-2,.56-4,1.62-5.99,1.61-54.43-.27-108.86-.67-163.29-.97-3.81-.02-7.61.7-11.43.86-2.24.09-4.5-.24-8.3-.48,6.35-6.37,11.48-11.65,16.76-16.76,4.07-3.94,8.48-7.52,12.49-11.51,19.64-19.53,39.27-39.07,58.69-58.81,2.76-2.81,4.31-6.79,6.42-10.23,1.19.5,2.37,1,3.56,1.49Z"/><path class="cls-3" d="m1247.95,333.41c0,60.03.05,118.96-.13,177.89-.01,3.35-1.93,6.69-2.96,10.03-2.23-1.88-4.62-3.6-6.68-5.65-26.38-26.32-52.47-52.95-79.23-78.89-7.74-7.51-5.68-9.46,0-15.17,25.91-26.02,51.89-51.97,77.88-77.9,3.32-3.31,6.87-6.39,11.1-10.31Z"/><path class="cls-3" d="m1252.31,1145.82c-1.07-1.61-1.97-2.33-1.97-3.05-.09-60.01-.13-120.02-.05-180.02,0-1.46,1.25-2.91,2.36-5.35,31.7,32.15,62.83,63.73,93.38,94.71-31.14,31.14-62.26,62.26-93.72,93.71Z"/></g></g><g id="logotype"><path class="cls-1" d="m1694.38,1525.69c2.97-.16,4.94-.35,6.9-.35,15.6,0,31.2,0,46.8.06,6.42.02,6.41.08,8.25,6.11,16.5,53.96,33.01,107.93,49.52,161.89.56,1.83,1.25,3.62,2.1,6.04,2.73-1.78,2.9-4.03,3.54-5.95,11.85-35.78,23.69-71.56,35.52-107.35,6.26-18.94,12.49-37.88,18.74-56.83,1.7-5.15,1.71-5.23,7.07-5.26,12.6-.05,25.2-.03,37.8,0,1.57,0,3.14.28,5.2.48,19.25,58.24,38.5,116.44,57.96,175.31,2.91-2.44,3.25-5.29,4.02-7.76,6.08-19.62,12.02-39.28,18.03-58.92,10.44-34.14,20.89-68.27,31.34-102.4.47-1.52,1.05-3,1.89-5.35,18.91-.13,38.02-.1,58.11,0-.69,2.61-1.09,4.64-1.75,6.58-8.19,24.18-16.48,48.33-24.63,72.52-7.77,23.05-15.29,46.18-23.13,69.21-10.98,32.28-22.15,64.49-33.22,96.74-1.42,4.15-2.76,8.33-4.09,12.51-.59,1.85-1.45,3.21-3.7,3.21-15.37-.03-30.73-.01-46.41-.01-19.82-56.06-38.43-112.18-59.12-167.86-4.03,5.46-4.73,12.04-7.17,17.9-2.52,6.07-4.7,12.29-6.92,18.49-2.22,6.19-4.34,12.42-6.46,18.65-2.12,6.23-4.19,12.48-6.27,18.72-2.15,6.43-4.21,12.89-6.44,19.3-2.16,6.21-4.56,12.34-6.72,18.56-2.15,6.21-4.11,12.5-6.19,18.74-2.08,6.24-4.17,12.47-6.33,18.69-2.15,6.2-4.38,12.36-6.69,18.86-7.03,0-13.81,0-20.59,0-7.8,0-15.6.03-23.4,0-5.19-.02-5.23-.05-6.82-4.76-7.37-21.71-14.71-43.44-22.09-65.15-20.4-60.04-40.81-120.07-61.22-180.11-1.08-3.17-2.08-6.36-3.42-10.48Z"/><path class="cls-1" d="m670.07,1525.84c2.09-.18,3.84-.46,5.58-.47,13.6-.02,27.2.11,40.8-.02,3.93-.04,6.53,1.19,9.01,4.46,37.77,49.82,75.69,99.52,113.59,149.24,1.25,1.63,2.73,3.08,4.86,4.34,1.19-8.92,1.03-17.58,1.05-26.23.02-8.59,0-17.17,0-25.76,0-8.78,0-17.57,0-26.35s0-17.57,0-26.35c0-8.59,0-17.17,0-25.76,0-8.77,0-17.54,0-26.17,4.49-1.69,46.35-2.12,54.47-.55.15,2.53.46,5.24.47,7.95.03,72.27.01,144.55.02,216.82,0,9.18.16,18.37.13,27.55-.02,5.3-.58,5.78-5.89,5.79-12.2,0-24.39-.11-36.59.02-3.73.04-6.32-1.15-8.63-4.19-28.02-36.91-56.14-73.74-84.25-110.58-11.02-14.45-22.05-28.9-33.12-43.32-1.37-1.79-3.02-3.38-4.54-5.06-.42.19-.84.38-1.26.58v161.77c-9.69,1.67-18.82.04-27.89.33-9.13.29-18.27.06-27.83.06v-258.11Z"/><path class="cls-1" d="m2179.66,1678.62c-1.91,5.64-2.05,49.14-.29,55.41h138.61c1.58,4.63,1.96,41.86.6,49.77h-195.59c-1.29-4.81-1.52-251.14-.34-257.5,4.91-1.21,186.43-1.43,193.47-.23,1.61,4.47,1.84,42.66.09,49.28h-136.71c-1.87,5.98-1.81,47.78.07,53.39h39.91c13.4,0,26.8-.02,40.2,0,13.33.03,26.67-.15,40.8.17.15,16.85.12,32.88,0,49.71h-120.83Z"/><path class="cls-1" d="m1193.5,1525.78h55.23c.2,2.83.53,5.34.54,7.85.03,28.35,0,56.7.04,85.05,0,2.73.33,5.47.55,8.87,2.49,0,4.44,0,6.4,0,31,0,62,0,92.99,0,1.2,0,2.4,0,3.6-.03,1.91-.05,2.96-1.11,3.13-2.93.17-1.78.21-3.59.21-5.38,0-28.95-.03-57.89-.05-86.84,0-1.96,0-3.92,0-5.69,5.1-1.61,48.49-1.85,55.26-.47,1.47,4.77,1.61,251.43-.01,257.6h-55.31c0-2.8,0-5.12,0-7.45-.03-29.35-.04-58.69-.13-88.04,0-2.71-.5-5.42-.8-8.38h-105.51c-.66,11.6-.27,22.93-.34,34.25-.07,11.58-.01,23.16-.01,34.74,0,11.35,0,22.7,0,34.51-6.67,1.36-12.82.35-18.91.5-6,.15-12,.03-18,.02-6.15,0-12.31,0-18.87,0v-258.17Z"/><path class="cls-1" d="m641.78,1783.66c-2.42.15-3.99.34-5.56.34-15.6.08-31.2.13-46.79.19-5.9.02-6.02-.04-8.3-5.64-6.47-15.89-12.92-31.78-19.39-47.67-2.11-5.19-2.36-5.36-7.93-5.35-32.4.01-64.8.04-97.19.06-.8,0-1.61.06-2.4,0-3.96-.34-6.03,1.37-7.49,5.19-6.07,15.82-12.49,31.5-18.83,47.21-2.62,6.5-2.67,6.42-9.56,6.37-14.4-.09-28.79-.1-43.19-.17-1.97,0-3.93-.19-6.89-.34.93-2.57,1.55-4.56,2.35-6.46,11.48-26.98,23.01-53.95,34.5-80.93,23.91-56.16,47.82-112.32,71.61-168.54,1.49-3.52,3.47-4.73,7.19-4.68,14,.17,28,.23,42-.02,4.17-.08,5.93,1.66,7.44,5.23,23.52,55.47,47.14,110.88,70.76,166.3,11.97,28.08,23.99,56.13,35.97,84.2.53,1.24.93,2.55,1.7,4.69Zm-103.26-107.75c-.19-1.52-.14-2.15-.36-2.66-10.59-26.01-21.18-52.01-31.84-77.98-.38-.92-1.37-1.59-2.18-2.49-.77.83-1.32,1.19-1.53,1.69-10.72,25.94-21.41,51.89-32.08,77.84-.29.71-.33,1.54-.44,2.31-.02.16.15.35.24.52.1.17.22.33.51.77h67.68Z"/><path class="cls-1" d="m1444.57,1783.69c2.4-5.75,4.49-10.88,6.67-15.98,33.88-79.41,67.81-158.8,101.54-238.27,1.95-4.59,4.24-6.35,9.26-6.23,13.58.34,27.18.2,40.77.05,3.44-.04,5.28.96,6.71,4.34,31.63,74.51,63.4,148.97,95.15,223.44,3.91,9.17,7.82,18.34,11.7,27.53.6,1.42,1.05,2.9,1.75,4.87-1.98.24-3.48.58-4.98.59-15.79.12-31.58.19-47.37.26-5.86.03-5.79-.01-8.11-5.77-6.42-15.9-13.01-31.73-19.3-47.68-1.54-3.89-3.55-5.45-7.94-5.42-32.58.25-65.17.36-97.75.13-5.6-.04-8.19,1.95-10.12,6.9-6.17,15.78-12.75,31.39-19.09,47.1-1.03,2.55-1.96,4.56-5.34,4.55-16.79-.06-33.58.07-50.37.11-.77,0-1.55-.25-3.2-.53Zm170.78-108.51c-.75-2.14-1.32-3.99-2.04-5.78-2.14-5.37-4.31-10.72-6.51-16.06-7.44-18.05-14.87-36.11-22.36-54.14-.93-2.23-1.44-4.85-4.54-6.59-11.37,27.63-22.55,54.78-33.82,82.17,1.41.62,2.29,1.34,3.17,1.34,20.97.09,41.94.12,62.91.1.89,0,1.79-.58,3.19-1.06Z"/><path class="cls-1" d="m1138.42,1554.16c-9.9,14.39-19.36,28.13-29.03,42.18-3.82-2.42-6.98-4.45-10.17-6.45-16.67-10.45-34.62-17.39-54.36-18.96-9.1-.72-17.85.77-25.97,5.48-14.02,8.14-15.66,28.56-1.01,37.05,4.8,2.78,9.93,5.26,15.22,6.89,15.07,4.66,30.33,8.68,45.44,13.2,13.05,3.9,25.72,8.77,37.3,16.1,18.07,11.43,28.3,27.55,30.12,49.06.99,11.71.22,23.17-3.23,34.32-6.83,22.03-21.71,36.96-42.71,45.7-21.72,9.04-44.45,10.74-67.7,7.96-22.52-2.7-43.68-9.39-63.41-20.52-9.57-5.4-18.54-11.67-27.37-19.59,11.08-13.21,21.91-26.12,33.09-39.45,2.15,1.57,3.89,2.81,5.6,4.1,13.81,10.44,28.48,19.23,45.44,23.58,14.12,3.62,28.39,4.54,42.75,1.68,5.75-1.14,10.8-3.77,15.32-7.72,9.5-8.31,7.7-24.27.03-31.12-4.7-4.2-9.93-7.5-15.88-9.38-12.18-3.85-24.5-7.24-36.68-11.07-12.18-3.84-24.34-7.75-36.32-12.13-5.01-1.83-9.7-4.72-14.28-7.54-18.3-11.3-27-28.34-28.53-49.28-.74-10.17-.34-20.36,2.54-30.28,6.62-22.83,21.63-38.22,42.98-47.79,11.98-5.37,24.67-7.86,37.79-8.42,35.53-1.52,68.13,7,97.18,27.89,1.76,1.27,3.44,2.66,5.84,4.52Z"/><path class="cls-1" d="m237.8,1576.59c-1.92,5.91-1.92,50.02,0,55.78h121.77c1.4,4.82,1.83,39.64.71,50.7-2.14.18-4.42.54-6.7.54-37.39.03-74.77,0-112.16.02-1.18,0-2.36.23-4.31.42-.24,2.67-.69,5.34-.69,8.01-.05,27.74-.03,55.49-.03,83.23,0,2.56,0,5.12,0,7.43-4.37,1.49-49.39,1.75-55.8.48v-257.27c2.38-.19,4.88-.55,7.37-.55,27.99-.04,55.98-.02,83.98-.03,32.19,0,64.38-.04,96.57-.02,2.75,0,5.49.26,8.62.42v50.72c-9.44.22-18.76.09-28.07.12-9.2.02-18.39,0-27.59,0h-28.19c-9.2,0-18.39,0-27.59,0-9.37,0-18.73,0-27.88,0Z"/></g></g></svg>