<?xml version="1.0" encoding="UTF-8"?><svg id="Camada_1" xmlns="http://www.w3.org/2000/svg" viewBox="0 0 5055.63 1274.31"><defs><style>.cls-1{fill:#656565;}.cls-2{fill:#b3272d;}.cls-3{fill:#e2231a;}</style></defs><g id="horizontal-logo"><g id="icon"><g id="shadow"><path class="cls-2" d="m818.06,80.56c4.55,6.27,3.62,13.5,3.62,20.56,0,39.57-.21,79.13.15,118.7.11,12.39-3.86,22.49-12.48,31.1-17.93,17.91-35.8,35.88-53.73,53.8-45.91,45.89-91.84,91.76-137.76,137.63-45.68,45.63-91.32,91.29-137.06,136.86-4.41,4.39-9.2,8.46-14.14,12.24-1.71,1.31-4.42,1.32-6.67,1.92.61-7.16,1.72-14.33,1.75-21.49.17-45.94.11-91.88.12-137.82,11.05-11.21,22.04-22.47,33.15-33.61,7.63-7.64,15.44-15.1,23.14-22.67,1.08-1.06,2.01-2.26,2.35-2.64-20.57-20.93-40.91-41.64-61.26-62.35-21.44-21.82-42.76-43.77-64.37-65.42-8.87-8.89-10.95-19.45-10.8-31.48.39-30.45.13-60.9.09-91.35-.02-11.43-.43-22.86-.06-34.27.1-3.27,2.29-6.48,3.53-9.72.93,0,1.86,0,2.78,0,2.65,2.53,5.35,5.01,7.94,7.61,57.11,57.24,114.2,114.49,171.31,171.73,10.98,11,22.02,21.95,33.13,33.01.97-.84,1.83-1.5,2.58-2.25,38.98-39.07,77.9-78.21,116.95-117.22,30.5-30.47,61.17-60.78,91.74-91.19.33-.33.21-1.12.3-1.69,1.24,0,2.47,0,3.71,0Zm-215.21,213.55c-3.56,3.3-6.55,5.89-9.35,8.68-21.89,21.84-43.76,43.69-65.58,65.59-4.79,4.81-6.52,6.45,0,12.77,22.52,21.84,44.49,44.26,66.71,66.42,1.73,1.73,3.74,3.18,5.62,4.76.87-2.82,2.48-5.63,2.49-8.45.15-49.62.11-99.24.11-149.78Z"/><path class="cls-2" d="m747.58,840.11c-1.28.24-3.02.03-3.77.79-18.07,18.19-36.06,36.47-53.98,54.81-1.31,1.34-1.96,3.33-3,5.17,34.04,33.98,67.84,67.72,101.65,101.46,8.31,8.3,16.4,16.84,25,24.84,6.56,6.11,9.65,13.5,9.68,22.12.13,42.04.08,84.09.05,126.13,0,3.23.01,6.52-.62,9.66-.47,2.32-1.45,5.39-3.18,6.32-1.34.72-4.76-.76-6.27-2.26-19.9-19.66-39.63-39.49-59.4-59.28-47.3-47.35-94.61-94.69-141.9-142.05-2.43-2.43-4.71-5.01-7.19-7.65-12.87,13.28-26.09,27.12-39.54,40.74-23.79,24.08-47.7,48.03-71.59,72.01-28.33,28.43-56.62,56.91-85.1,85.2-5.64,5.61-12.06,10.43-18.13,15.62-.73-.22-1.46-.44-2.19-.66-.8-3.04-2.28-6.08-2.29-9.12-.1-46.07-.24-92.14.34-138.2.07-5.63,2.82-12.6,6.73-16.59,40.32-41.16,81.13-81.84,121.82-122.64,26.19-26.26,52.41-52.5,78.63-78.73,45.77-45.79,91.53-91.59,137.34-137.34,2.83-2.82,5.85-5.55,9.16-7.75,1.87-1.24,4.51-1.3,6.81-1.9-.01,4.08-.03,8.17-.03,12.25,0,46.59-.01,93.18.04,139.77,0,2.42.6,4.84.92,7.26Zm-141.06,138.02c26.49-26.48,52.69-52.68,78.91-78.9-25.72-26.09-51.94-52.68-78.63-79.75-.94,2.05-1.99,3.28-1.99,4.5-.06,50.52-.03,101.05.05,151.57,0,.61.76,1.21,1.66,2.57Z"/><path class="cls-2" d="m869.07,554.99c1.68-2,3.22-4.15,5.06-5.99,39.33-39.37,78.81-78.58,117.96-118.14,9.05-9.15,19.26-13.54,32.05-13.47,39.42.22,78.84.08,118.26.14,4.15,0,8.3.41,12.44.72,4.49.34,6.36,3.68,4.22,7.68-.79,1.47-1.97,2.78-3.15,3.98-26.26,26.63-52.42,53.35-78.85,79.81-36.26,36.31-72.7,72.44-109.14,108.57-6.24,6.18-12.84,12-18.99,17.72,4.72,4.97,9.04,9.78,13.63,14.32,14.49,14.35,29.17,28.49,43.6,42.89,49.57,49.46,99.07,99,148.59,148.52,1.42,1.42,2.98,2.78,4.02,4.46,3.22,5.17,1.06,8.85-5.11,8.87-27.98.06-55.96.11-83.94.14-15.15.02-30.3.01-45.45-.03-4.63-.01-9.31.2-13.88-.4-6.69-.88-11.27-5.67-15.82-10.05-12.48-11.99-24.83-24.12-37.12-36.31-15.42-15.29-30.78-30.65-46.06-46.08-12.56-12.68-24.87-25.6-37.45-38.26-22.61-22.75-45.29-45.43-68.03-68.06-49.76-49.52-99.58-99-149.39-148.47-3.58-3.56-7-7.16-8.04-12.34,2.89-.31,5.78-.88,8.67-.88,45.96-.05,91.93-.03,137.89-.03,4.23,0,8.46,0,12.69-.01.12.59.04,1.36.39,1.73,6.16,6.49,12.23,13.08,18.62,19.35,8.03,7.89,16.39,15.46,24.49,23.29,5.07,4.9,9.92,10.03,14.87,15.06-1.78,2.9-3.09,6.26-5.41,8.62-16.35,16.63-32.88,33.08-49.41,49.52-3.38,3.36-7.09,6.38-10.52,9.69-4.45,4.31-8.76,8.75-14.12,14.11,3.2.2,5.1.49,6.99.41,3.21-.13,6.42-.74,9.62-.73,45.83.25,91.66.59,137.49.82,1.68,0,3.36-.88,5.05-1.35-.71-1.6-1.06-3.56-2.2-4.75-7.42-7.78-15.06-15.36-22.55-23.08-4.5-4.64-8.76-9.53-13.31-14.11-4.96-4.99-10.07-9.83-15.24-14.6-6.95-6.42-14.06-12.66-20.97-19.1-1.13-1.05-1.63-2.78-2.42-4.19Z"/><path class="cls-2" d="m401.83,779.11c-.89-1.37-1.58-2.94-2.71-4.07-18.68-18.71-37.42-37.37-56.14-56.04,1.01-1.49,1.8-3.21,3.06-4.45,12.97-12.78,26.06-25.44,39.03-38.22,10.89-10.74,21.65-21.61,32.48-32.4,1.69-1.68,3.5-3.23,6.12-5.64-2.52-.51-4.03-1.08-5.54-1.09-49.9-.05-99.8-.06-149.7,0-1.35,0-2.7.8-4.05,1.23.62,1.32.93,2.95,1.9,3.93,23.65,23.76,47.38,47.44,71.08,71.15,1.67,1.67,3.22,3.47,4.83,5.21-22.59,22.86-45.06,45.83-67.8,68.55-19.57,19.55-39.46,38.79-59.16,58.22-6.98,6.89-15.18,9.9-25.07,9.86-42.67-.18-85.34-.02-128.01-.05-3.2,0-6.58-.04-9.56-1.01-4.47-1.46-4.84-3.97-1.38-7.49,10.61-10.8,21.3-21.52,32-32.23,57.19-57.25,114.39-114.5,171.6-171.73,1.84-1.84,3.81-3.57,6-5.61-.96-1.1-1.78-2.17-2.72-3.11-66.94-66.84-133.9-133.66-200.83-200.51-2.4-2.4-4.77-4.86-6.86-7.53-2.48-3.18-1.84-5.24,2.07-6.4,2.48-.73,5.17-1.05,7.76-1.05,44.06-.1,88.11-.18,132.17-.13,9.92.01,17.84,4.57,24.76,11.51,45.4,45.53,90.87,90.99,136.37,136.42,9.1,9.09,18.56,17.81,27.63,26.92,39.71,39.91,79.32,79.9,118.98,119.85,9.21,9.28,18.45,18.53,27.7,27.77,9.34,9.32,18.87,18.46,27.94,28.03,2.23,2.35,3.01,6.07,4.45,9.15-52.81.32-105.62.64-158.42.96Z"/></g><g id="logo"><path class="cls-3" d="m401.83,779.11c52.81-.32,105.62-.64,158.42-.96-1.05,3.34-1.13,7.61-3.31,9.88-15.58,16.26-31.55,32.13-47.45,48.07-25.96,26.04-51.98,52.03-77.93,78.08-17.82,17.9-35.37,36.08-53.44,53.72-8.91,8.69-18.57,16.63-28.21,24.52-5.02,4.12-11.29,5.57-17.81,5.58-34.61.01-69.23-.03-103.84.08-8.44.03-16.88.64-25.32.79-2.54.04-5.16-.33-7.64-.93-5.31-1.29-6.54-5.47-2.75-9.36,6.36-6.53,12.85-12.93,19.3-19.37,61-60.93,122-121.86,183-182.8,2.38-2.38,4.65-4.87,6.97-7.3Z"/><path class="cls-3" d="m747.58,840.11c-.32-2.42-.92-4.84-.92-7.26-.06-46.59-.05-93.18-.04-139.77,0-4.08.02-8.17.03-12.25,3.37,1.89,7.22,3.25,10.02,5.78,5.95,5.38,11.26,11.44,16.98,17.07,10.88,10.7,21.99,21.16,32.77,31.95,12.95,12.95,25.57,26.22,38.5,39.18,35.26,35.33,70.47,70.72,106.04,105.75,9.36,9.21,14.01,19.14,13.91,32.62-.32,43.55.41,87.11.6,130.67,0,2.09-.63,4.76-2,6.15-2.35,2.4-5.31,2-7.83-.5-4.94-4.89-9.98-9.68-14.89-14.6-34.16-34.12-68.35-68.2-102.42-102.42-28.03-28.15-55.89-56.47-83.83-84.71-.75-.76-1.6-1.43-2.4-2.14-.23-.21-.47-.43-.71-.64-1.27-1.62-2.54-3.25-3.81-4.87Z"/><path class="cls-3" d="m461.85,434.07c-.01,45.94.05,91.88-.12,137.82-.03,7.17-1.14,14.33-1.75,21.49-2.54-1.41-5.57-2.34-7.55-4.31-68.13-68.04-136.23-136.11-204.05-204.45-4.45-4.48-6.28-11.29-6.29-18.01-.06-33.07-.08-66.15-.11-99.22-.01-14.45,0-28.89,0-43.72.23-.09,1.16-.68,2.15-.81,3.11-.4,5.5-.5,8.35,2.5,13.27,14.02,27.16,27.44,40.79,41.11,33.68,33.78,67.32,67.59,101.02,101.35,21.72,21.76,43.49,43.47,65.27,65.17.56.56,1.51.72,2.29,1.06Z"/><path class="cls-3" d="m807.71,494.3c-4.23,0-8.46.01-12.69.01-45.96,0-91.93-.02-137.89.03-2.89,0-5.78.58-8.67.88.86-2.3,1.13-5.16,2.68-6.82,11.95-12.8,24.05-25.46,36.32-37.97,4.81-4.9,10.34-9.1,15.21-13.95,7.88-7.84,15.4-16.06,23.25-23.93,6.08-6.09,12.53-11.8,18.65-17.84,10.2-10.06,20.32-20.21,30.4-30.39,26.04-26.3,52.07-52.62,78.05-78.97,6.05-6.14,13.41-8.98,21.88-9.06,40.57-.38,81.14-.75,121.71-.99,6.27-.04,12.55.5,18.8,1.05,1.27.11,3.31,1.36,3.46,2.32.26,1.74-.07,4.13-1.15,5.41-3.17,3.74-6.78,7.11-10.29,10.54-8.28,8.08-16.72,15.98-24.88,24.17-18.44,18.52-36.67,37.25-55.12,55.74-37.11,37.19-74.31,74.29-111.47,111.42-2.76,2.76-5.51,5.54-8.26,8.32Z"/><path class="cls-3" d="m342.18,718.73c-1.61-1.74-3.15-3.54-4.83-5.21-23.7-23.71-47.42-47.4-71.08-71.15-.97-.97-1.28-2.6-1.9-3.93,1.35-.43,2.7-1.23,4.05-1.23,49.9-.06,99.8-.05,149.7,0,1.51,0,3.01.57,5.54,1.09-2.62,2.41-4.43,3.96-6.12,5.64-10.84,10.79-21.6,21.66-32.48,32.4-12.96,12.79-26.06,25.44-39.03,38.22-1.26,1.24-2.05,2.95-3.06,4.45-.29-.02-.56-.11-.8-.27Z"/><path class="cls-3" d="m869.07,554.99c.79,1.41,1.29,3.14,2.42,4.19,6.92,6.45,14.03,12.69,20.97,19.1,5.17,4.77,10.28,9.61,15.24,14.6,4.56,4.58,8.81,9.47,13.31,14.11,7.49,7.72,15.12,15.3,22.55,23.08,1.14,1.2,1.49,3.15,2.2,4.75-1.68.47-3.37,1.36-5.05,1.35-45.83-.23-91.66-.57-137.49-.82-3.21-.02-6.41.59-9.62.73-1.89.08-3.79-.2-6.99-.41,5.35-5.36,9.67-9.81,14.12-14.11,3.43-3.32,7.14-6.33,10.52-9.69,16.53-16.44,33.06-32.89,49.41-49.52,2.32-2.36,3.63-5.72,5.41-8.62,1,.42,2,.84,2.99,1.26Z"/><path class="cls-3" d="m602.84,294.11c0,50.54.04,100.16-.11,149.78,0,2.82-1.62,5.63-2.49,8.45-1.88-1.58-3.89-3.03-5.62-4.76-22.22-22.16-44.18-44.58-66.71-66.42-6.52-6.32-4.79-7.96,0-12.77,21.82-21.91,43.69-43.76,65.58-65.59,2.8-2.79,5.79-5.38,9.35-8.68Z"/><path class="cls-3" d="m606.51,978.14c-.9-1.36-1.66-1.96-1.66-2.57-.08-50.52-.11-101.05-.05-151.57,0-1.23,1.05-2.45,1.99-4.5,26.69,27.07,52.9,53.66,78.63,79.75-26.22,26.22-52.42,52.42-78.91,78.9Z"/></g></g><g id="logotype"><path class="cls-1" d="m3933.45,415.55c5.1-.27,8.47-.6,11.85-.6,26.79,0,53.58.01,80.36.11,11.03.04,11,.14,14.16,10.48,28.34,92.67,56.68,185.33,85.04,277.99.96,3.14,2.15,6.22,3.6,10.37,4.68-3.06,4.98-6.92,6.07-10.22,20.36-61.44,40.69-122.88,61-184.33,10.75-32.52,21.44-65.05,32.17-97.58,2.92-8.84,2.93-8.99,12.13-9.03,21.64-.09,43.27-.06,64.91,0,2.69,0,5.39.48,8.93.82,33.06,100,66.1,199.95,99.53,301.04,4.99-4.19,5.58-9.09,6.9-13.32,10.45-33.69,20.64-67.45,30.96-101.18,17.92-58.62,35.87-117.23,53.82-175.83.8-2.61,1.81-5.15,3.24-9.19,32.47-.22,65.28-.17,99.79,0-1.18,4.49-1.87,7.97-3,11.3-14.07,41.52-28.29,82.98-42.29,124.52-13.34,39.58-26.26,79.3-39.71,118.84-18.85,55.43-38.04,110.74-57.05,166.12-2.45,7.12-4.73,14.3-7.03,21.48-1.01,3.17-2.5,5.51-6.36,5.51-26.39-.05-52.78-.02-79.69-.02-34.04-96.27-65.98-192.64-101.51-288.24-6.91,9.38-8.13,20.67-12.31,30.74-4.33,10.43-8.07,21.11-11.89,31.75-3.82,10.63-7.45,21.33-11.09,32.02-3.64,10.7-7.2,21.43-10.77,32.15-3.69,11.05-7.23,22.14-11.06,33.13-3.71,10.67-7.83,21.19-11.53,31.86-3.7,10.67-7.06,21.46-10.63,32.17-3.57,10.71-7.17,21.42-10.87,32.09-3.69,10.64-7.52,21.23-11.49,32.38-12.06,0-23.71,0-35.36,0-13.39,0-26.79.05-40.18-.02-8.92-.04-8.97-.09-11.72-8.17-12.66-37.29-25.26-74.6-37.93-111.88-35.03-103.09-70.08-206.18-105.12-309.27-1.85-5.44-3.57-10.92-5.88-18Z"/><path class="cls-1" d="m2174.55,415.8c3.59-.31,6.59-.8,9.59-.8,23.35-.03,46.71.18,70.06-.03,6.75-.06,11.22,2.05,15.47,7.66,64.85,85.55,129.97,170.9,195.06,256.27,2.14,2.8,4.69,5.29,8.35,7.45,2.04-15.31,1.76-30.19,1.8-45.05.04-14.74.01-29.48.01-44.23,0-15.08,0-30.17,0-45.25s0-30.17,0-45.25c0-14.74,0-29.48,0-44.23,0-15.06,0-30.11,0-44.94,7.7-2.9,79.59-3.63,93.54-.94.27,4.35.8,9,.8,13.66.04,124.11.02,248.21.04,372.32,0,15.77.27,31.54.22,47.31-.03,9.09-.99,9.93-10.12,9.93-20.94.02-41.89-.19-62.83.03-6.41.07-10.85-1.98-14.82-7.2-48.11-63.38-96.41-126.62-144.67-189.88-18.93-24.82-37.87-49.62-56.88-74.38-2.36-3.07-5.18-5.8-7.79-8.68-.72.33-1.44.66-2.16.99v277.78c-16.63,2.87-32.32.08-47.89.57-15.67.49-31.37.11-47.79.11v-443.21Z"/><path class="cls-1" d="m4766.77,678.15c-3.27,9.68-3.53,84.38-.5,95.15h238.01c2.71,7.95,3.36,71.88,1.03,85.46h-335.86c-2.22-8.25-2.6-431.24-.58-442.16,8.44-2.08,320.13-2.45,332.21-.39,2.76,7.68,3.15,73.25.16,84.62h-234.76c-3.21,10.27-3.1,82.05.12,91.67h68.53c23.01,0,46.02-.04,69.03.01,22.89.05,45.8-.25,70.06.29.25,28.93.2,56.46,0,85.35h-207.48Z"/><path class="cls-1" d="m3073.36,415.7h94.84c.35,4.86.91,9.17.92,13.48.06,48.68,0,97.36.07,146.04,0,4.7.56,9.39.94,15.24,4.27,0,7.63,0,10.98,0,53.23,0,106.46,0,159.68,0,2.06,0,4.12-.01,6.18-.06,3.28-.08,5.08-1.9,5.37-5.04.28-3.06.36-6.16.36-9.24-.01-49.71-.05-99.41-.09-149.12,0-3.36,0-6.72,0-9.78,8.76-2.77,83.27-3.18,94.89-.81,2.53,8.19,2.76,431.74-.02,442.35h-94.98c0-4.8,0-8.8,0-12.8-.05-50.39-.07-100.78-.22-151.17-.01-4.66-.86-9.31-1.37-14.39h-181.18c-1.14,19.92-.46,39.38-.58,58.81-.12,19.88-.03,39.77-.03,59.65,0,19.49,0,38.98,0,59.26-11.45,2.33-22.02.6-32.47.87-10.3.26-20.6.04-30.91.04-10.57,0-21.13,0-32.41,0v-443.31Z"/><path class="cls-1" d="m2125.97,858.53c-4.16.27-6.85.58-9.55.59-26.78.14-53.57.22-80.35.32-10.13.04-10.34-.07-14.25-9.68-11.11-27.28-22.19-54.57-33.3-81.86-3.63-8.91-4.06-9.2-13.61-9.19-55.63.03-111.27.06-166.9.1-1.37,0-2.76.11-4.12,0-6.8-.59-10.35,2.36-12.87,8.92-10.43,27.16-21.45,54.09-32.33,81.07-4.5,11.17-4.59,11.02-16.41,10.94-24.72-.16-49.44-.17-74.16-.3-3.37-.02-6.75-.32-11.84-.58,1.6-4.42,2.65-7.82,4.04-11.09,19.72-46.33,39.52-92.63,59.24-138.96,41.05-96.44,82.12-192.88,122.97-289.4,2.56-6.05,5.96-8.12,12.35-8.04,24.04.3,48.08.4,72.11-.04,7.17-.13,10.18,2.85,12.78,8.98,40.38,95.24,80.95,190.4,121.51,285.57,20.55,48.21,41.19,96.39,61.76,144.59.91,2.14,1.59,4.37,2.92,8.06Zm-177.31-185.03c-.33-2.62-.25-3.68-.61-4.57-18.18-44.66-36.37-89.3-54.67-133.91-.65-1.59-2.36-2.74-3.74-4.28-1.32,1.42-2.27,2.04-2.63,2.9-18.41,44.54-36.77,89.1-55.09,133.67-.5,1.22-.56,2.64-.75,3.97-.04.27.25.6.42.89.17.3.37.57.87,1.33h116.21Z"/><path class="cls-1" d="m3504.5,858.58c4.12-9.87,7.72-18.68,11.45-27.44,58.17-136.36,116.44-272.68,174.36-409.15,3.34-7.88,7.28-10.91,15.91-10.7,23.33.58,46.68.34,70.02.09,5.91-.07,9.06,1.65,11.53,7.45,54.31,127.95,108.87,255.8,163.38,383.67,6.71,15.75,13.43,31.5,20.1,47.26,1.03,2.43,1.8,4.97,3.01,8.37-3.4.42-5.97.99-8.54,1.01-27.11.2-54.22.32-81.34.45-10.06.05-9.94-.02-13.93-9.9-11.03-27.3-22.34-54.48-33.14-81.87-2.64-6.68-6.09-9.36-13.64-9.3-55.95.43-111.9.62-167.84.22-9.61-.07-14.06,3.35-17.38,11.85-10.59,27.09-21.89,53.9-32.78,80.88-1.77,4.38-3.37,7.83-9.17,7.82-28.83-.09-57.66.13-86.49.2-1.33,0-2.66-.43-5.49-.91Zm293.25-186.32c-1.29-3.67-2.27-6.85-3.5-9.92-3.67-9.21-7.41-18.41-11.18-27.58-12.77-31-25.53-62-38.39-92.96-1.59-3.83-2.47-8.33-7.8-11.31-19.53,47.44-38.72,94.07-58.08,141.1,2.42,1.06,3.93,2.3,5.44,2.31,36.01.16,72.02.21,108.03.18,1.54,0,3.07-.99,5.48-1.82Z"/><path class="cls-1" d="m2978.79,464.43c-17,24.7-33.24,48.3-49.85,72.43-6.55-4.16-11.99-7.64-17.46-11.07-28.63-17.95-59.45-29.87-93.34-32.56-15.62-1.24-30.66,1.32-44.6,9.41-24.07,13.98-26.89,49.05-1.73,63.61,8.24,4.77,17.05,9.03,26.13,11.84,25.87,8,52.08,14.91,78.03,22.67,22.4,6.7,44.16,15.07,64.05,27.65,31.03,19.63,48.6,47.3,51.72,84.24,1.7,20.11.38,39.79-5.55,58.94-11.73,37.84-37.28,63.47-73.34,78.48-37.3,15.52-76.32,18.45-116.24,13.67-38.67-4.63-75-16.13-108.89-35.24-16.44-9.27-31.84-20.04-46.99-33.64,19.02-22.68,37.62-44.86,56.82-67.75,3.68,2.69,6.68,4.82,9.61,7.03,23.71,17.92,48.9,33.02,78.04,40.48,24.24,6.21,48.76,7.8,73.41,2.89,9.87-1.97,18.54-6.47,26.31-13.26,16.32-14.26,13.22-41.67.06-53.43-8.07-7.21-17.05-12.87-27.27-16.1-20.91-6.61-42.07-12.42-62.98-19.02-20.91-6.59-41.8-13.3-62.37-20.83-8.61-3.15-16.66-8.1-24.51-12.95-31.43-19.41-46.36-48.67-48.99-84.62-1.28-17.46-.58-34.96,4.36-52,11.37-39.21,37.14-65.64,73.8-82.07,20.57-9.22,42.36-13.5,64.9-14.47,61.01-2.61,116.99,12.02,166.87,47.9,3.03,2.18,5.91,4.56,10.03,7.76Z"/><path class="cls-1" d="m1432.28,502.94c-3.3,10.15-3.29,85.89,0,95.78h209.09c2.4,8.28,3.14,68.06,1.22,87.06-3.67.31-7.58.93-11.5.93-64.2.05-128.4.01-192.6.03-2.03,0-4.05.39-7.4.73-.41,4.59-1.18,9.17-1.19,13.76-.09,47.64-.06,95.28-.06,142.92,0,4.39,0,8.79,0,12.75-7.51,2.56-84.81,3.01-95.82.83v-441.77c4.09-.32,8.37-.94,12.66-.95,48.07-.07,96.13-.04,144.2-.05,55.28-.01,110.55-.06,165.83-.04,4.71,0,9.43.45,14.8.72v87.1c-16.21.38-32.21.16-48.2.2-15.79.04-31.59,0-47.38,0h-48.41c-15.79,0-31.59,0-47.38,0-16.08,0-32.17,0-47.88,0Z"/></g></g></svg>