<?xml version="1.0" encoding="UTF-8"?><svg id="Camada_1" xmlns="http://www.w3.org/2000/svg" viewBox="0 0 2500 2500"><defs><style>.cls-1{fill:#b3272d;}.cls-2{fill:#e2231a;}</style></defs><g id="icon"><g id="shadow"><path class="cls-1" d="m1694.19,91.93c9.48,13.04,7.53,28.09,7.54,42.79.02,82.32-.45,164.65.3,246.97.23,25.78-8.04,46.8-25.97,64.71-37.31,37.26-74.49,74.66-111.79,111.94-95.53,95.47-191.09,190.91-286.64,286.37-95.03,94.95-190.01,189.95-285.17,284.76-9.18,9.14-19.14,17.59-29.43,25.47-3.55,2.72-9.19,2.74-13.87,3.99,1.27-14.91,3.58-29.81,3.64-44.72.36-95.59.22-191.17.24-286.76,22.98-23.32,45.85-46.76,68.98-69.94,15.87-15.9,32.12-31.42,48.16-47.16,2.24-2.2,4.19-4.71,4.88-5.5-42.79-43.55-85.13-86.63-127.46-129.72-44.61-45.41-88.96-91.07-133.93-136.12-18.46-18.49-22.79-40.46-22.47-65.49.81-63.35.28-126.71.19-190.07-.03-23.77-.88-47.57-.12-71.31.22-6.81,4.77-13.48,7.34-20.22,1.93,0,3.86,0,5.79,0,5.51,5.27,11.13,10.43,16.52,15.83,118.82,119.09,237.6,238.22,356.42,357.3,22.84,22.9,45.82,45.66,68.93,68.69,2.02-1.75,3.8-3.11,5.37-4.68,81.11-81.3,162.08-162.73,243.33-243.88,63.47-63.4,127.28-126.45,190.87-189.73.69-.69.44-2.33.62-3.52,2.57,0,5.15,0,7.72,0Zm-447.78,444.32c-7.41,6.86-13.64,12.26-19.45,18.06-45.54,45.43-91.05,90.89-136.44,136.47-9.96,10-13.57,13.42,0,26.57,46.87,45.45,92.57,92.09,138.79,138.2,3.6,3.59,7.78,6.61,11.7,9.9,1.8-5.86,5.16-11.71,5.18-17.58.32-103.24.23-206.47.23-311.63Z"/><path class="cls-1" d="m1547.55,1672.28c-2.66.5-6.28.06-7.85,1.64-37.6,37.85-75.03,75.87-112.31,114.04-2.72,2.79-4.07,6.92-6.25,10.76,70.83,70.7,141.16,140.9,211.49,211.1,17.3,17.27,34.13,35.04,52.01,51.69,13.65,12.71,20.08,28.09,20.13,46.03.27,87.48.17,174.96.11,262.44,0,6.71.03,13.57-1.29,20.09-.97,4.82-3.03,11.22-6.62,13.15-2.79,1.5-9.9-1.59-13.05-4.7-41.41-40.9-82.45-82.17-123.59-123.34-98.42-98.51-196.84-197.02-295.23-295.55-5.05-5.06-9.8-10.42-14.95-15.92-26.78,27.62-54.28,56.43-82.27,84.77-49.49,50.1-99.25,99.93-148.96,149.82-58.94,59.16-117.8,118.41-177.05,177.27-11.75,11.67-25.1,21.71-37.71,32.5-1.52-.46-3.04-.92-4.56-1.38-1.66-6.32-4.75-12.65-4.76-18.97-.21-95.85-.5-191.7.7-287.54.15-11.71,5.86-26.21,14-34.52,83.9-85.64,168.81-170.28,253.47-255.16,54.5-54.64,109.05-109.23,163.6-163.81,95.22-95.28,190.45-190.56,285.76-285.74,5.88-5.87,12.17-11.55,19.06-16.12,3.89-2.58,9.39-2.71,14.17-3.94-.03,8.5-.07,16.99-.07,25.49,0,96.94-.03,193.88.09,290.82,0,5.03,1.25,10.06,1.92,15.1Zm-293.5,287.18c55.11-55.1,109.62-109.61,164.18-164.17-53.52-54.28-108.06-109.6-163.59-165.92-1.95,4.27-4.13,6.82-4.13,9.37-.13,105.12-.06,210.25.09,315.37,0,1.26,1.57,2.53,3.45,5.35Z"/><path class="cls-1" d="m1800.33,1079.04c3.5-4.17,6.7-8.63,10.53-12.47,81.83-81.91,163.98-163.51,245.42-245.81,18.83-19.03,40.07-28.17,66.68-28.02,82.02.46,164.04.16,246.05.29,8.63.01,17.26.85,25.88,1.5,9.34.71,13.24,7.65,8.78,15.98-1.64,3.06-4.09,5.78-6.56,8.28-54.63,55.4-109.07,111-164.06,166.06-75.45,75.54-151.27,150.72-227.08,225.9-12.98,12.87-26.71,24.97-39.51,36.88,9.81,10.35,18.81,20.35,28.36,29.8,30.14,29.85,60.69,59.29,90.72,89.25,103.14,102.91,206.13,205.98,309.15,309.01,2.95,2.95,6.2,5.79,8.37,9.27,6.7,10.76,2.2,18.42-10.64,18.45-58.22.13-116.44.23-174.65.3-31.52.04-63.04.02-94.57-.07-9.63-.03-19.37.41-28.87-.83-13.91-1.83-23.45-11.8-32.93-20.91-25.97-24.95-51.66-50.18-77.22-75.54-32.08-31.82-64.04-63.76-95.84-95.87-26.13-26.38-51.75-53.26-77.92-79.6-47.05-47.34-94.24-94.52-141.54-141.6-103.54-103.04-207.18-205.98-310.83-308.91-7.46-7.41-14.57-14.89-16.73-25.68,6.01-.64,12.02-1.83,18.03-1.84,95.63-.11,191.27-.06,286.9-.06,8.8,0,17.6-.01,26.4-.02.25,1.22.09,2.83.82,3.59,12.82,13.51,25.46,27.21,38.73,40.26,16.71,16.43,34.1,32.16,50.95,48.45,10.55,10.2,20.64,20.88,30.94,31.34-3.7,6.03-6.42,13.02-11.25,17.93-34.01,34.6-68.41,68.82-102.81,103.03-7.03,6.99-14.76,13.27-21.89,20.17-9.26,8.96-18.24,18.2-29.37,29.37,6.65.42,10.61,1.01,14.54.85,6.69-.28,13.35-1.55,20.02-1.51,95.35.52,190.7,1.22,286.06,1.7,3.5.02,7-1.84,10.5-2.82-1.49-3.34-2.21-7.4-4.59-9.89-15.45-16.18-31.34-31.95-46.91-48.01-9.37-9.66-18.22-19.82-27.7-29.36-10.32-10.38-20.96-20.45-31.71-30.38-14.45-13.35-29.25-26.33-43.64-39.75-2.35-2.19-3.39-5.78-5.03-8.72Z"/><path class="cls-1" d="m828.17,1545.36c-1.86-2.84-3.29-6.11-5.63-8.46-38.87-38.94-77.85-77.76-116.81-116.6,2.1-3.11,3.75-6.67,6.37-9.25,26.99-26.59,54.22-52.93,81.2-79.53,22.66-22.34,45.04-44.97,67.59-67.42,3.51-3.49,7.28-6.72,12.73-11.73-5.25-1.07-8.39-2.26-11.52-2.26-103.82-.11-207.64-.12-311.47,0-2.81,0-5.62,1.67-8.43,2.56,1.28,2.75,1.93,6.15,3.94,8.17,49.21,49.43,98.58,98.7,147.88,148.04,3.48,3.48,6.7,7.23,10.04,10.85-47,47.57-93.76,95.36-141.06,142.62-40.72,40.69-82.1,80.71-123.08,121.13-14.53,14.33-31.59,20.6-52.15,20.52-88.78-.38-177.56-.03-266.33-.1-6.66,0-13.69-.08-19.9-2.1-9.3-3.03-10.07-8.25-2.86-15.59,22.07-22.47,44.32-44.77,66.58-67.06,118.99-119.12,238-238.23,357.03-357.32,3.84-3.84,7.93-7.42,12.49-11.68-2-2.3-3.71-4.51-5.66-6.46-139.28-139.06-278.59-278.1-417.86-417.18-5-4.99-9.93-10.12-14.26-15.67-5.17-6.61-3.82-10.91,4.31-13.31,5.16-1.53,10.75-2.18,16.15-2.19,91.67-.21,183.33-.37,275-.27,20.64.02,37.11,9.51,51.51,23.95,94.46,94.73,189.06,189.31,283.73,283.83,18.93,18.9,38.62,37.05,57.49,56.02,82.61,83.03,165.04,166.24,247.56,249.36,19.17,19.31,38.39,38.55,57.64,57.77,19.43,19.4,39.26,38.4,58.14,58.31,4.63,4.88,6.26,12.62,9.26,19.05-109.87.67-219.75,1.34-329.62,2Z"/></g><g id="logo"><path class="cls-2" d="m828.17,1545.36c109.87-.67,219.75-1.34,329.62-2-2.18,6.96-2.36,15.84-6.88,20.56-32.41,33.82-65.65,66.85-98.72,100.03-54.02,54.19-108.16,108.25-162.15,162.47-37.09,37.23-73.59,75.07-111.19,111.76-18.53,18.08-38.64,34.6-58.69,51.03-10.45,8.56-23.49,11.6-37.06,11.6-72.02.03-144.03-.05-216.05.17-17.56.06-35.12,1.33-52.68,1.64-5.29.09-10.73-.69-15.89-1.94-11.05-2.68-13.61-11.38-5.73-19.47,13.24-13.58,26.74-26.9,40.16-40.31,126.92-126.78,253.85-253.55,380.75-380.35,4.95-4.95,9.68-10.13,14.51-15.2Z"/><path class="cls-2" d="m1547.55,1672.28c-.67-5.03-1.92-10.06-1.92-15.1-.12-96.94-.09-193.88-.09-290.82,0-8.5.05-16.99.07-25.49,7.02,3.93,15.02,6.77,20.84,12.02,12.37,11.18,23.43,23.81,35.34,35.52,22.63,22.25,45.74,44.03,68.19,66.47,26.94,26.94,53.2,54.56,80.11,81.53,73.37,73.51,146.62,147.15,220.62,220.02,19.47,19.17,29.15,39.83,28.94,67.86-.67,90.61.84,181.24,1.25,271.87.02,4.35-1.32,9.89-4.16,12.79-4.89,4.99-11.05,4.15-16.28-1.03-10.28-10.18-20.76-20.15-30.99-30.37-71.07-70.99-142.22-141.91-213.09-213.09-58.31-58.57-116.28-117.49-174.42-176.24-1.57-1.59-3.33-2.98-5-4.46-.49-.45-.98-.89-1.47-1.34-2.64-3.38-5.29-6.76-7.93-10.13Z"/><path class="cls-2" d="m953.05,827.46c-.02,95.59.11,191.17-.24,286.76-.06,14.91-2.37,29.81-3.64,44.72-5.28-2.94-11.59-4.86-15.71-8.97-141.75-141.56-283.43-283.19-424.55-425.38-9.25-9.32-13.06-23.5-13.09-37.47-.12-68.82-.17-137.63-.22-206.45-.02-30.06,0-60.12,0-90.96.48-.19,2.41-1.41,4.47-1.68,6.47-.84,11.45-1.04,17.36,5.2,27.61,29.16,56.51,57.1,84.88,85.54,70.08,70.28,140.08,140.63,210.18,210.88,45.18,45.28,90.48,90.44,135.8,135.59,1.16,1.16,3.15,1.49,4.76,2.21Z"/><path class="cls-2" d="m1672.66,952.77c-8.8,0-17.6.02-26.4.02-95.63,0-191.27-.05-286.9.06-6.01,0-12.02,1.2-18.03,1.84,1.8-4.79,2.36-10.73,5.58-14.18,24.87-26.63,50.05-52.98,75.57-78.99,10.01-10.2,21.51-18.93,31.65-29.02,16.4-16.32,32.04-33.41,48.38-49.79,12.64-12.67,26.06-24.55,38.81-37.12,21.23-20.93,42.28-42.04,63.26-63.22,54.19-54.72,108.33-109.47,162.4-164.31,12.59-12.77,27.9-18.68,45.53-18.85,84.41-.79,168.83-1.56,253.24-2.06,13.04-.08,26.11,1.03,39.11,2.18,2.65.23,6.89,2.83,7.2,4.83.55,3.62-.14,8.6-2.39,11.25-6.59,7.78-14.1,14.8-21.42,21.94-17.22,16.8-34.79,33.25-51.77,50.3-38.37,38.53-76.29,77.49-114.69,115.98-77.2,77.38-154.61,154.56-231.93,231.83-5.75,5.75-11.46,11.53-17.19,17.3Z"/><path class="cls-2" d="m704.06,1419.74c-3.34-3.62-6.56-7.37-10.04-10.85-49.3-49.34-98.67-98.61-147.88-148.04-2.02-2.03-2.66-5.42-3.94-8.17,2.81-.89,5.62-2.56,8.43-2.56,103.82-.12,207.64-.11,311.47,0,3.14,0,6.27,1.19,11.52,2.26-5.45,5.01-9.23,8.24-12.73,11.73-22.55,22.45-44.93,45.07-67.59,67.42-26.97,26.6-54.21,52.94-81.2,79.53-2.62,2.58-4.27,6.14-6.37,9.25-.61-.03-1.16-.22-1.66-.56Z"/><path class="cls-2" d="m1800.33,1079.04c1.64,2.94,2.68,6.54,5.03,8.72,14.39,13.41,29.19,26.4,43.64,39.75,10.75,9.93,21.39,20,31.71,30.38,9.48,9.54,18.33,19.7,27.7,29.36,15.58,16.06,31.47,31.83,46.91,48.01,2.38,2.49,3.1,6.55,4.59,9.89-3.5.98-7,2.83-10.5,2.82-95.35-.48-190.7-1.18-286.06-1.7-6.67-.04-13.34,1.23-20.02,1.51-3.93.16-7.88-.43-14.54-.85,11.13-11.16,20.11-20.41,29.37-29.37,7.13-6.9,14.86-13.18,21.89-20.17,34.4-34.21,68.8-68.44,102.81-103.03,4.83-4.91,7.55-11.9,11.25-17.93,2.08.87,4.15,1.74,6.23,2.61Z"/><path class="cls-2" d="m1246.41,536.26c0,105.16.09,208.39-.23,311.63-.02,5.86-3.38,11.72-5.18,17.58-3.91-3.29-8.09-6.3-11.7-9.9-46.22-46.11-91.93-92.76-138.79-138.2-13.56-13.15-9.96-16.56,0-26.57,45.39-45.58,90.9-91.04,136.44-136.47,5.82-5.8,12.04-11.2,19.45-18.06Z"/><path class="cls-2" d="m1254.04,1959.46c-1.88-2.82-3.45-4.09-3.45-5.35-.16-105.12-.22-210.25-.09-315.37,0-2.55,2.18-5.1,4.13-9.37,55.53,56.32,110.08,111.64,163.59,165.92-54.56,54.55-109.07,109.06-164.18,164.17Z"/></g></g></svg>