<?xml version="1.0" encoding="UTF-8"?>
<svg id="Layer_1" data-name="Layer 1" xmlns="http://www.w3.org/2000/svg" viewBox="0 0 829.18 826.88">
  <defs>
    <style>
      .cls-1 {
        fill: #e8dcd6;
      }

      .cls-2 {
        fill: #e2231a;
      }

      .cls-3 {
        fill: #b73138;
      }

      .cls-4 {
        fill: #ddd0ca;
      }

      .cls-5 {
        fill: #c64b57;
      }

      .cls-6 {
        fill: #f4ebe6;
      }

      .cls-7 {
        fill: #b3272d;
      }

      .cls-8 {
        fill: #f3eae4;
      }

      .cls-9 {
        opacity: .2;
      }

      .cls-9, .cls-10 {
        fill: #961723;
      }

      .cls-11 {
        fill: #e3c9b9;
      }

      .cls-12 {
        fill: #e4cab9;
      }
    </style>
  </defs>
  <path class="cls-6" d="M240.75,149.61c113.65-.05,228.07,1.19,342.01.94-.1.9.15,1.96,0,2.81-.45,2.57-.02,1.7,0,2.81.28,16.01-.26,31.85-.94,47.79l-426.34,1.41v30.92l3.23,1.45,423.11-.05.94,3.75c0,9.72,1.3,24.79,0,33.73-.45.1-.87.5-.94.94-.52,3.54-.22,4.67,3.5,3.45l41-41.85,43.57,43.08v-130.24c12.39.22,28.52-1.52,40.81-.05,1.01.12,2.16-.04,2.83.92l.41,99.38c.02,23.72,0,47.49,0,71.21v54.35c-19.56,12.01-39.64,23.84-59.03,35.61-3.21-2.28-6.89-.14-9.84-.19-154.66-2.38-310.01-1.56-464.8-.79-2.35.01-4.36.93-6.05.98-5.07.14-65.39-40.02-74.96-45.91v-44.04c0-17.63.2-35.31.02-52.95-.02-1.58.6-4.17-.95-5.14-.61-1.59,1.84-2.02,1.79-2.33-.06-.4-.85-.68-.85-.95v-110.1c45.13-.07,90.3.07,135.44.05,2.31,0,4.43-.98,6.05-.98ZM214.52,255.5v25.3h108.69v-25.3h-108.69ZM540.59,255.5h-189.28v25.3h189.28v-25.3ZM155.44,329.52v14.06h502.28v-14.06H155.44ZM155.44,370.75v14.06h502.28v-14.06H155.44Z"/>
  <path class="cls-10" d="M418.78,535.66c-.57,2.97,1.5,1.52,3.14,1.97,3.16.85,8.01,2.01,10.83,3.27,2.99,1.34,3.76,4.66,8.52,4.13,3.72,4.5,9.19,6.71,13.82,10.02,108.65,77.82,218.96,154.79,328.19,231.73,5.01,3.53,10.23,7.63,15.49,11.26,1.17.81,2.78.71,2.31,2.79H28.05c2.37-5.68,10.53-8.05,15.31-11.39,39.64-27.74,78.25-57.2,117.74-85.12.81-.57,1.78-1.15,2.81-1.87,34.65-24.5,70.25-49.65,104.94-74.02,1.41-.99,2.68-2.06,3.75-2.81,9.13-6.41,18.98-13.28,28.11-19.68,26.39-18.47,57.91-42.31,85.24-58.64,1.03-.62,1.65-2.12,1.91-2.27,1.42-.83,7.3-1.3,9.27-3.38l8.53-5.99c4.36,0,8.76.02,13.12,0Z"/>
  <path class="cls-5" d="M588.38,149.61c-2.33,0-4.94.94-5.62.94-113.94.25-228.36-.99-342.01-.94l140.26-113.2c20.96-14.03,46.84-13.73,67.69.36l139.68,112.85Z"/>
  <path class="cls-3" d="M99.26,322.02l-69.72-.02c-1.02-.1-.47,1.21-.56,1.89-1.56,12.21,6.12,10.01,14.99,11.24v438.05c0,4.06,9.52,4.08,12.18,2.81,4.98-2.37,1.34-14.53,3.97-18.98l13.83-1.16c.18-2.86-.72-12.54,1.53-14.14,7.98-2.2,12.94-1.62,13.56,7.47,9.32.89,13.89-9.1,16.74-16.3,3.15-1.01,6.41-.11,9.63-.68,7.42-1.3,4.5-4.26,4.44-9.15-.04-3.43.03-6.88,0-10.31.58-.32,1.72-.83,1.87-.94l11.15.09c-.2,8.34,9.41,5.44,9.47-1.02l-7.38-2.47-.12-10.66c.59-.33,1.72-.82,1.87-.94l9.66.18c2.62.67,2.33,4.9,4.37,5.93l10.33,1.39c-39.49,27.92-78.1,57.38-117.74,85.12-4.78,3.34-12.94,5.71-15.31,11.39l-1.89-.56-.04-478.65c.27-.97,1.96-.27,2.56-.78,22.59-19.33,45.94-38.59,69.65-56.91,1.55.97.94,3.56.95,5.14.19,17.64-.02,35.32-.02,52.95Z"/>
  <path class="cls-10" d="M588.38,149.61c27.2-.09,54.6.46,81.52.94v130.24s-43.57-43.08-43.57-43.08l-41,41.85c-3.73,1.22-4.02.08-3.5-3.45.45-.1.87-.5.94-.94,1.3-8.94,0-24.01,0-33.73,0-1.25,0-2.5,0-3.75,0-1.56,0-3.12,0-4.69,0-9.18.79-19.22-.94-28.11.01-.31-.01-.63,0-.94.67-15.94,1.22-31.78.94-47.79v-2.81c.15-.85-.1-1.91,0-2.81.68,0,3.29-.93,5.62-.94Z"/>
  <path class="cls-5" d="M713.94,250.81l85.82,68.35c1.09.61.95,2.3,1.32,2.86h-87.14c0-23.72.02-47.49,0-71.21Z"/>
  <path class="cls-3" d="M801.08,322.96c.2.18,2.27-.6,1.95,1.34l-.06,475.97-1.89.56c.46-2.08-1.15-1.99-2.31-2.79-5.26-3.63-10.48-7.74-15.49-11.26l9.43-2.45-.11-447.83,2.86-3.23c.21,2.34,1.13,4.58.98,6.99v440.47c.42,2.54-1.75,5.07-1.65,7.31.09,1.96,2.83,8.6,4.92,5.33l.44-469.47c.29-.14.58-.72.94-.94Z"/>
  <path class="cls-10" d="M801.08,322.02c.15.22-.16.79,0,.94-.36.22-.65.8-.94.94-3.76,1.76-4.12,3.38-4.69,3.75-.36.23-2.43.12-3.75.94-1.39.86-2.59,2.1-3.75,2.81-2.52,1.54-4.98,3.14-7.5,4.69-.47.29-1.17.5-1.87.94-21.48,13.21-43.17,26.16-64.65,39.35v-54.35h87.14Z"/>
  <path class="cls-6" d="M671.31,148.68c.61.31.61.62,0,.94v-.94Z"/>
  <path class="cls-3" d="M795.46,327.65c.11,1.86-.16,3.78,0,5.62l-2.86,3.23.11,447.83-9.43,2.45c-109.23-76.93-219.54-153.9-328.19-231.73-4.62-3.31-10.1-5.52-13.82-10.02,2.46-.27,12.35-6.29,13.12-9.37,7.77-.83,36.28-21.85,44.98-27.17,4.81-2.95,11.33-5.65,16.25-8.58,1.49-.89,6.18-3.55,6.23-5.48,15.61-7.19,29.46-18.17,44.04-27.17,4.84-2.99,11.95-6.01,17.09-9.42l5.4-4.63,2.73-.5,41.31-26.67c3.98-.49,17.32-9.44,21.84-12.17.88-.54.56-1.84.65-1.89,19.39-11.76,39.47-23.6,59.03-35.61,21.49-13.19,43.18-26.15,64.65-39.35l.48.93h1.39s0-1.86,0-1.86c2.52-1.54,4.98-3.14,7.5-4.69l3.74.94v-3.75c1.32-.82,3.4-.71,3.75-.94Z"/>
  <path class="cls-3" d="M99.26,366.06c9.57,5.9,69.89,46.05,74.96,45.91-.14,2.31,1.43,2.38,2.79,3.3,6.28,4.2,13.24,7.74,19.69,11.69,14.53,8.89,28.78,18.77,44.04,26.24l9.24,7.16c3.91,2.57,9.43,4.55,13.25,6.89,14.51,8.92,28.97,20.77,44.98,27.17-.13,2.3,3.45,3.61,5.13,4.71,5.65,3.72,11.74,6.83,17.36,10.28,14.25,8.75,29.06,17.28,43.1,26.24.09.06-.3,1.39.16,1.69,4.38,2.8,9.31,5.22,13.89,7.68-.26.15-.87,1.65-1.91,2.27-27.33,16.33-58.84,40.17-85.24,58.64-6.53-1.32.55-10.37-1.35-13.16-1.49-2.18-11.84-2.51-13.98-.98-2.82,4.72-1.11,10.07-.61,15.07-10.71-1.57-17.26-3.77-15.81,9.73.43,4,2.17,5.61,3.64,9.01-1.07.75-2.34,1.82-3.75,2.81-2.12-1.43-11.49-1.48-13.14-.49-1.73,1.04-1.72,5.71-3.75,7.49-1.47,1.3-4.18,1.4-5.94,2.5-1.42.89-4.29,4.43-4.83,4.55-2.49.55-2.02-3.82-3.25-5.17-2.01-2.2-9.71-1.68-12.54-.53-2.26,1.61-1.36,11.29-1.53,14.14l-13.83,1.16c-2.29,3.96-.05,10.29-1.65,13.8-2.09,4.58-11.78,7.01-10.76,13.14h-2.79s-2.8-11.74-2.8-11.74c-1.96-2.15-8.94-1.67-11.6-.53-2.26,1.61-1.36,11.29-1.53,14.14l-13.83,1.16c-2.19,5.59-.67,11.76-1.16,17.57-3.31-.53-8.59.76-11.52.01-.91-.23-1.07-2.06-2.15-2.71-2.9-1.71-9.76-2.82-12.89-2.01-1.07.28-.52,1.82-.62,1.89-.16.11-1.28.6-1.87.94-.36.2-1.71-.57-1.91.59l.04,11.6-10.63-.03c-1.03.18-.52,1.83-.62,1.9-.15.11-1.29.62-1.87.94-.27.15-1.39-.33-1.74.11l-.14,10.21h1.87c.06,4.88,2.98,7.84-4.44,9.14-3.23.56-6.48-.33-9.63.68-2.86,7.2-7.43,17.19-16.74,16.3-.62-9.08-5.58-9.66-13.56-7.47-2.26,1.61-1.36,11.28-1.53,14.14l-13.83,1.16c-2.63,4.44,1,16.61-3.97,18.98-2.67,1.27-12.18,1.25-12.18-2.81v-438.05c-8.88-1.23-16.55.97-14.99-11.24l70.28,42.17Z"/>
  <path class="cls-12" d="M581.82,203.96c-.01.31.01.63,0,.94-.36,8.06-1.27,16.39-.94,24.87.07,1.8-.96,3.76,1.87,3.24,0,1.56,0,3.12,0,4.69h-.94l-423.11.05-3.23-1.45v-30.92l426.34-1.41Z"/>
  <rect class="cls-11" x="155.44" y="329.52" width="502.28" height="14.06"/>
  <rect class="cls-12" x="155.44" y="370.75" width="502.28" height="14.06"/>
  <path class="cls-12" d="M654.91,411.98c-.09.05.24,1.35-.65,1.89-4.52,2.73-17.86,11.67-21.84,12.17-141.01.97-282.09-1.27-423.1-.05-3.74.03-9.13-.02-12.6.98-6.45-3.95-13.41-7.49-19.69-11.69-1.37-.92-2.94-.99-2.79-3.3,1.69-.05,3.7-.97,6.05-.98,154.79-.76,310.14-1.59,464.8.79,2.95.05,6.63-2.09,9.84.19Z"/>
  <rect class="cls-12" x="351.32" y="255.5" width="189.28" height="25.3"/>
  <rect class="cls-12" x="214.52" y="255.5" width="108.69" height="25.3"/>
  <path class="cls-10" d="M99.26,322.02v44.04l-70.28-42.17c.09-.68-.46-1.99.56-1.89l69.72.02Z"/>
  <path class="cls-11" d="M582.76,241.44l-.94-3.75h.94c0,1.25,0,2.5,0,3.75Z"/>
  <path class="cls-11" d="M582.76,156.17c-.02-1.11-.45-.24,0-2.81v2.81Z"/>
  <path class="cls-11" d="M581.82,276.11c.06-.44.49-.84.94-.94-.06.44-.49.84-.94.94Z"/>
  <path class="cls-8" d="M499.37,508.49c-8.7,5.32-37.2,26.34-44.98,27.17-10.53,1.13-24.6-.06-35.61,0-4.36.02-8.76,0-13.12,0h-31.86c-14.04-8.96-28.85-17.48-43.1-26.24l168.66-.94Z"/>
  <path class="cls-3" d="M268.86,628.42c-34.69,24.37-70.29,49.53-104.94,74.02-1.81-.41-.05-2.22,0-2.81.49-5.81-1.03-11.98,1.16-17.57l13.83-1.16c.18-2.86-.72-12.54,1.53-14.14,2.67-1.14,9.64-1.62,11.6.53l2.8,11.74h2.79c-1.02-6.12,8.67-8.55,10.76-13.14,1.6-3.52-.64-9.84,1.65-13.8l13.83-1.16c.18-2.86-.72-12.53,1.53-14.14,2.83-1.14,10.53-1.66,12.54.53,1.23,1.35.76,5.72,3.25,5.17.54-.12,3.41-3.65,4.83-4.55,1.75-1.1,4.46-1.2,5.94-2.5,2.03-1.78,2.03-6.45,3.75-7.49s11.02-.95,13.14.49Z"/>
  <path class="cls-3" d="M272.61,625.61c-1.47-3.4-3.21-5.01-3.64-9.01-1.45-13.51,5.11-11.3,15.81-9.73-.5-5-2.22-10.35.61-15.07,2.15-1.53,12.49-1.2,13.98.98,1.9,2.78-5.18,11.83,1.35,13.16-9.13,6.39-18.98,13.27-28.11,19.68Z"/>
  <path class="cls-11" d="M454.39,535.66c-.77,3.08-10.65,9.1-13.12,9.37-4.76.53-5.53-2.79-8.52-4.13-2.82-1.26-7.67-2.42-10.83-3.27-1.64-.44-3.71,1-3.14-1.97,11.01-.06,25.07,1.13,35.61,0Z"/>
  <path class="cls-11" d="M405.67,535.66l-8.53,5.99c-1.97,2.08-7.85,2.55-9.27,3.38-4.58-2.47-9.52-4.89-13.89-7.68-.46-.3-.07-1.63-.16-1.69h31.86Z"/>
  <path class="cls-3" d="M136.75,696.83c.1-.07-.45-1.62.62-1.89,3.13-.81,9.99.3,12.89,2.01,1.08.64,1.24,2.47,2.15,2.71,2.92.74,8.21-.54,11.52-.01-.05.59-1.81,2.4,0,2.81-1.03.73-2,1.3-2.81,1.87l-10.33-1.39c-2.04-1.03-1.75-5.26-4.37-5.93l-9.66-.18Z"/>
  <path class="cls-3" d="M134.87,697.76l.12,10.66,7.38,2.47c-.06,6.46-9.67,9.36-9.47,1.02l-11.15-.09c.1-.07-.42-1.71.62-1.9l10.63.03-.04-11.6c.2-1.16,1.55-.39,1.91-.59Z"/>
  <path class="cls-3" d="M119.88,712.76c.03,3.43-.04,6.88,0,10.31h-1.87s.14-10.2.14-10.2c.34-.43,1.47.04,1.74-.11Z"/>
  <path class="cls-11" d="M582.76,233.01c-2.84.52-1.8-1.43-1.87-3.24-.34-8.48.58-16.81.94-24.87,1.73,8.89.93,18.93.94,28.11Z"/>
  <path class="cls-3" d="M800.15,323.9l-.44,469.47c-2.08,3.26-4.83-3.37-4.92-5.33-.1-2.23,2.07-4.76,1.65-7.31v-440.47c.15-2.41-.77-4.64-.98-6.99-.16-1.85.11-3.77,0-5.62.57-.36.92-1.99,4.69-3.75Z"/>
  <path class="cls-3" d="M791.71,328.58v3.75s-3.75-.94-3.75-.94c1.15-.71,2.36-1.95,3.75-2.81Z"/>
  <path class="cls-3" d="M780.47,336.08v1.87s-1.4,0-1.4,0l-.48-.93c.7-.43,1.4-.65,1.87-.94Z"/>
  <path class="cls-8" d="M632.42,426.03l-41.31,26.67-2.73.5H240.75c-15.26-7.47-29.51-17.34-44.04-26.24,3.47-1,8.86-.95,12.6-.98,141.01-1.22,282.1,1.01,423.1.05Z"/>
  <path class="cls-8" d="M565.89,467.26c-14.58,9-28.43,19.98-44.04,27.17h-213.64c-16.01-6.4-30.47-18.25-44.98-27.17h302.65Z"/>
  <path class="cls-11" d="M588.38,453.2l-5.4,4.63c-5.14,3.41-12.25,6.43-17.09,9.42h-302.65c-3.82-2.35-9.34-4.33-13.25-6.89l-9.24-7.16h347.63Z"/>
  <path class="cls-11" d="M521.85,494.43c-.06,1.93-4.74,4.59-6.23,5.48-4.93,2.93-11.44,5.63-16.25,8.58l-168.66.94c-5.61-3.45-11.7-6.56-17.36-10.28-1.68-1.1-5.27-2.41-5.13-4.71h213.64Z"/>
  <path class="cls-9" d="M346.87,519.19l-51.4-31.03c11.33-9.41,56.07-44.33,122.48-43.14,62.24,1.12,103.87,33.25,115.77,43.14-16.93,10.34-33.87,20.69-50.8,31.03h-136.04Z"/>
  <g>
    <path class="cls-4" d="M544.43,596.8c0,68.51-53.17,124.59-120.51,129.22-2.98.21-5.99.32-9.02.32-71.54,0-129.54-58-129.54-129.54s58-129.54,129.54-129.54c19.96,0,38.88,4.51,55.77,12.6,43.63,20.84,73.77,65.37,73.77,116.94Z"/>
    <path class="cls-6" d="M522.02,589.85c0,63.39-41.09,117.18-98.1,136.16-2.98.21-5.99.32-9.02.32-31.94,0-61.18-11.56-83.76-30.73-28.01-23.76-45.78-59.2-45.78-98.8,0-71.54,58-129.54,129.54-129.54,15.03,0,29.45,2.55,42.88,7.26,4.41,1.55,8.71,3.33,12.89,5.33,31.4,26.31,51.36,65.82,51.36,110Z"/>
    <path class="cls-1" d="M522.02,589.85c0,63.39-41.09,117.18-98.1,136.16-2.98.21-5.99.32-9.02.32-31.94,0-61.18-11.56-83.76-30.73-18.75-23.43-29.95-53.15-29.95-85.48,0-75.66,61.33-137,136.98-137,6.65,0,13.2.48,19.61,1.4,4.41,1.55,8.71,3.33,12.89,5.33,31.4,26.31,51.36,65.82,51.36,110Z"/>
    <g id="icon">
      <g id="shadow">
        <path class="cls-7" d="M448.74,508.57c.72.99.57,2.14.57,3.26,0,6.27-.03,12.54.02,18.82.02,1.96-.61,3.57-1.98,4.93-2.84,2.84-5.68,5.69-8.52,8.53-7.28,7.27-14.56,14.54-21.84,21.82-7.24,7.23-14.48,14.47-21.73,21.69-.7.7-1.46,1.34-2.24,1.94-.27.21-.7.21-1.06.3.1-1.14.27-2.27.28-3.41.03-7.28.02-14.56.02-21.85,1.75-1.78,3.49-3.56,5.26-5.33,1.21-1.21,2.45-2.39,3.67-3.59.17-.17.32-.36.37-.42-3.26-3.32-6.49-6.6-9.71-9.88-3.4-3.46-6.78-6.94-10.2-10.37-1.41-1.41-1.74-3.08-1.71-4.99.06-4.83.02-9.65.01-14.48,0-1.81-.07-3.62,0-5.43.02-.52.36-1.03.56-1.54h.44c.42.4.85.79,1.26,1.21,9.05,9.07,18.1,18.15,27.15,27.22,1.74,1.74,3.49,3.48,5.25,5.23.15-.13.29-.24.41-.36,6.18-6.19,12.35-12.4,18.54-18.58,4.84-4.83,9.7-9.63,14.54-14.45.05-.05.03-.18.05-.27h.59ZM414.62,542.42c-.56.52-1.04.93-1.48,1.38-3.47,3.46-6.94,6.92-10.39,10.4-.76.76-1.03,1.02,0,2.02,3.57,3.46,7.05,7.02,10.57,10.53.27.27.59.5.89.75.14-.45.39-.89.39-1.34.02-7.87.02-15.73.02-23.74h0Z"/>
        <path class="cls-7" d="M437.57,628.97c-.2.04-.48,0-.6.12-2.86,2.88-5.72,5.78-8.56,8.69-.21.21-.31.53-.48.82,5.4,5.39,10.75,10.73,16.11,16.08,1.32,1.32,2.6,2.67,3.96,3.94,1.04.97,1.53,2.14,1.53,3.51.02,6.66.01,13.33,0,19.99,0,.51,0,1.03-.1,1.53-.07.37-.23.85-.5,1-.21.11-.75-.12-.99-.36-3.15-3.12-6.28-6.26-9.42-9.4-7.5-7.5-15-15.01-22.49-22.52-.38-.39-.75-.79-1.14-1.21-2.04,2.1-4.14,4.3-6.27,6.46-3.77,3.82-7.56,7.61-11.35,11.41-4.49,4.51-8.97,9.02-13.49,13.51-.9.89-1.91,1.65-2.87,2.48-.12-.04-.23-.07-.35-.11-.13-.48-.36-.96-.36-1.45-.02-7.3-.04-14.6.05-21.91.01-.89.45-2,1.07-2.63,6.39-6.52,12.86-12.97,19.31-19.44,4.15-4.16,8.31-8.32,12.46-12.48,7.25-7.26,14.51-14.52,21.77-21.77.45-.45.93-.88,1.45-1.23.3-.2.72-.21,1.08-.3,0,.65,0,1.29,0,1.94,0,7.39,0,14.77,0,22.16,0,.38.1.77.15,1.15h0ZM415.21,650.85c4.2-4.2,8.35-8.35,12.51-12.51-4.08-4.14-8.23-8.35-12.46-12.64-.15.33-.31.52-.31.71,0,8.01,0,16.02,0,24.03,0,.1.12.19.26.41h0Z"/>
        <path class="cls-7" d="M456.83,583.77c.27-.32.51-.66.8-.95,6.23-6.24,12.49-12.46,18.7-18.73,1.43-1.45,3.05-2.15,5.08-2.13,6.25.04,12.5.01,18.75.02.66,0,1.31.06,1.97.11.71.05,1.01.58.67,1.22-.12.23-.31.44-.5.63-4.16,4.22-8.31,8.46-12.5,12.65-5.75,5.76-11.52,11.48-17.3,17.21-.99.98-2.03,1.9-3.01,2.81.75.79,1.43,1.55,2.16,2.27,2.3,2.27,4.62,4.52,6.91,6.8,7.86,7.84,15.7,15.69,23.55,23.54.22.22.47.44.64.71.51.82.17,1.4-.81,1.41-4.44,0-8.87.02-13.31.02-2.4,0-4.8,0-7.2,0-.73,0-1.48.03-2.2-.06-1.06-.14-1.79-.9-2.51-1.59-1.98-1.9-3.94-3.82-5.88-5.76-2.44-2.42-4.88-4.86-7.3-7.3-1.99-2.01-3.94-4.06-5.94-6.06-3.58-3.61-7.18-7.2-10.78-10.79-7.89-7.85-15.78-15.69-23.68-23.53-.57-.56-1.11-1.13-1.27-1.96.46-.05.92-.14,1.37-.14,7.29,0,14.57,0,21.86,0,.67,0,1.34,0,2.01,0,.02.09,0,.22.06.27.98,1.03,1.94,2.07,2.95,3.07,1.27,1.25,2.6,2.45,3.88,3.69.8.78,1.57,1.59,2.36,2.39-.28.46-.49.99-.86,1.37-2.59,2.64-5.21,5.24-7.83,7.85-.54.53-1.12,1.01-1.67,1.54-.71.68-1.39,1.39-2.24,2.24.51.03.81.08,1.11.06.51-.02,1.02-.12,1.53-.12,7.26.04,14.53.09,21.79.13.27,0,.53-.14.8-.21-.11-.25-.17-.56-.35-.75-1.18-1.23-2.39-2.43-3.57-3.66-.71-.74-1.39-1.51-2.11-2.24-.79-.79-1.6-1.56-2.42-2.31-1.1-1.02-2.23-2.01-3.32-3.03-.18-.17-.26-.44-.38-.66h0Z"/>
        <path class="cls-7" d="M382.76,619.3c-.14-.22-.25-.47-.43-.64-2.96-2.97-5.93-5.92-8.9-8.88.16-.24.29-.51.49-.7,2.06-2.03,4.13-4.03,6.19-6.06,1.73-1.7,3.43-3.43,5.15-5.14.27-.27.55-.51.97-.89-.4-.08-.64-.17-.88-.17-7.91,0-15.82,0-23.73,0-.21,0-.43.13-.64.2.1.21.15.47.3.62,3.75,3.77,7.51,7.52,11.27,11.28.27.27.51.55.76.83-3.58,3.62-7.14,7.27-10.75,10.87-3.1,3.1-6.25,6.15-9.38,9.23-1.11,1.09-2.41,1.57-3.97,1.56-6.76-.03-13.53,0-20.29,0-.51,0-1.04,0-1.52-.16-.71-.23-.77-.63-.22-1.19,1.68-1.71,3.38-3.41,5.07-5.11,9.07-9.08,18.13-18.15,27.2-27.22.29-.29.6-.57.95-.89-.15-.18-.28-.34-.43-.49-10.61-10.59-21.22-21.19-31.83-31.78-.38-.38-.76-.77-1.09-1.19-.39-.5-.29-.83.33-1.01.39-.12.82-.17,1.23-.17,6.98-.02,13.97-.03,20.95-.02,1.57,0,2.83.72,3.92,1.82,7.2,7.22,14.4,14.42,21.62,21.62,1.44,1.44,2.94,2.82,4.38,4.27,6.29,6.33,12.57,12.67,18.86,19,1.46,1.47,2.92,2.94,4.39,4.4,1.48,1.48,2.99,2.93,4.43,4.44.35.37.48.96.71,1.45-8.37.05-16.74.1-25.11.15h0Z"/>
      </g>
      <g id="logo">
        <path class="cls-2" d="M382.74,619.3c8.37-.05,16.74-.1,25.11-.15-.17.53-.18,1.21-.52,1.57-2.47,2.58-5,5.09-7.52,7.62-4.12,4.13-8.24,8.25-12.35,12.38-2.83,2.84-5.61,5.72-8.47,8.51-1.41,1.38-2.94,2.64-4.47,3.89-.8.65-1.79.88-2.82.88-5.49,0-10.97,0-16.46.01-1.34,0-2.68.1-4.01.12-.4,0-.82-.05-1.21-.15-.84-.2-1.04-.87-.44-1.48,1.01-1.03,2.04-2.05,3.06-3.07,9.67-9.66,19.34-19.32,29.01-28.98.38-.38.74-.77,1.11-1.16h0Z"/>
        <path class="cls-2" d="M437.55,628.97c-.05-.38-.15-.77-.15-1.15,0-7.39,0-14.77,0-22.16,0-.65,0-1.29,0-1.94.53.3,1.14.52,1.59.92.94.85,1.79,1.81,2.69,2.71,1.72,1.7,3.48,3.35,5.2,5.06,2.05,2.05,4.05,4.16,6.1,6.21,5.59,5.6,11.17,11.21,16.81,16.76,1.48,1.46,2.22,3.03,2.2,5.17-.05,6.9.06,13.81.1,20.71,0,.33-.1.75-.32.97-.37.38-.84.32-1.24-.08-.78-.78-1.58-1.54-2.36-2.31-5.41-5.41-10.84-10.81-16.23-16.23-4.44-4.46-8.86-8.95-13.29-13.43-.12-.12-.25-.23-.38-.34-.04-.03-.07-.07-.11-.1-.2-.26-.4-.52-.6-.77h0Z"/>
        <path class="cls-2" d="M392.26,564.61c0,7.28,0,14.56-.02,21.85,0,1.14-.18,2.27-.28,3.41-.4-.22-.88-.37-1.2-.68-10.8-10.78-21.59-21.57-32.34-32.41-.7-.71-.99-1.79-1-2.85,0-5.24-.01-10.49-.02-15.73,0-2.29,0-4.58,0-6.93.04-.01.18-.11.34-.13.49-.06.87-.08,1.32.4,2.1,2.22,4.31,4.35,6.47,6.52,5.34,5.35,10.67,10.71,16.01,16.07,3.44,3.45,6.89,6.89,10.35,10.33.09.09.24.11.36.17h0Z"/>
        <path class="cls-2" d="M447.08,574.15c-.67,0-1.34,0-2.01,0-7.29,0-14.57,0-21.86,0-.46,0-.92.09-1.37.14.14-.36.18-.82.43-1.08,1.89-2.03,3.81-4.04,5.76-6.02.76-.78,1.64-1.44,2.41-2.21,1.25-1.24,2.44-2.55,3.69-3.79.96-.97,1.99-1.87,2.96-2.83,1.62-1.59,3.22-3.2,4.82-4.82,4.13-4.17,8.25-8.34,12.37-12.52.96-.97,2.13-1.42,3.47-1.44,6.43-.06,12.86-.12,19.29-.16.99,0,1.99.08,2.98.17.2.02.52.22.55.37.04.28-.01.66-.18.86-.5.59-1.07,1.13-1.63,1.67-1.31,1.28-2.65,2.53-3.94,3.83-2.92,2.94-5.81,5.9-8.74,8.84-5.88,5.9-11.78,11.78-17.67,17.66-.44.44-.87.88-1.31,1.32h0Z"/>
        <path class="cls-2" d="M373.29,609.73c-.25-.28-.5-.56-.76-.83-3.76-3.76-7.52-7.51-11.27-11.28-.15-.15-.2-.41-.3-.62.21-.07.43-.2.64-.2,7.91,0,15.82,0,23.73,0,.24,0,.48.09.88.17-.42.38-.7.63-.97.89-1.72,1.71-3.42,3.43-5.15,5.14-2.05,2.03-4.13,4.03-6.19,6.06-.2.2-.33.47-.49.7-.05,0-.09-.02-.13-.04h0Z"/>
        <path class="cls-2" d="M456.81,583.77c.12.22.2.5.38.66,1.1,1.02,2.22,2.01,3.32,3.03.82.76,1.63,1.52,2.42,2.31.72.73,1.4,1.5,2.11,2.24,1.19,1.22,2.4,2.42,3.57,3.66.18.19.24.5.35.75-.27.07-.53.22-.8.21-7.26-.04-14.53-.09-21.79-.13-.51,0-1.02.09-1.53.12-.3.01-.6-.03-1.11-.06.85-.85,1.53-1.55,2.24-2.24.54-.53,1.13-1,1.67-1.54,2.62-2.61,5.24-5.21,7.83-7.85.37-.37.58-.91.86-1.37.16.07.32.13.47.2h0Z"/>
        <path class="cls-2" d="M414.61,542.42c0,8.01,0,15.88-.02,23.74,0,.45-.26.89-.39,1.34-.3-.25-.62-.48-.89-.75-3.52-3.51-7-7.07-10.57-10.53-1.03-1-.76-1.26,0-2.02,3.46-3.47,6.93-6.94,10.39-10.4.44-.44.92-.85,1.48-1.38h0Z"/>
        <path class="cls-2" d="M415.19,650.85c-.14-.21-.26-.31-.26-.41-.01-8.01-.02-16.02,0-24.03,0-.19.17-.39.31-.71,4.23,4.29,8.39,8.51,12.46,12.64-4.16,4.16-8.31,8.31-12.51,12.51h0Z"/>
      </g>
    </g>
  </g>
</svg>